<?xml version="1.0" encoding="UTF-8"?>
<svg id="Layer_1" xmlns="http://www.w3.org/2000/svg" version="1.1" viewBox="0 0 1567.81 625.32">
  <!-- Generator: Adobe Illustrator 29.5.1, SVG Export Plug-In . SVG Version: 2.1.0 Build 141)  -->
  <defs>
    <style>
      .st0 {
        fill: #231f20;
      }
    </style>
  </defs>
  <path class="st0" d="M307.03,210.04c-22.62,0-48.32,4.23-70.15,13.97-20.15,8.99-36.65,23.53-36.65,47.64-.01,21.71,13.79,34.42,13.42,34.07,5.87,5.41,15.32,14.6,40.02,20.02,11.04,2.42,34.65,6.13,58.15,8.59,23.33,2.45,46.3,4.78,55.64,7.16,7.43,1.88,19.92,4.46,19.92,18.47s-13.15,18.2-15.44,19.11c-2.28.92-18.07,8.14-46.41,8.14-20.94,0-46.11-6.29-55.29-9.57-10.57-3.77-21.67-8.74-32.01-21.38-2.57-3.15-6.64-11.76-6.64-20.28h-25.67v71.92h28.53v-9.73c0-1.12,1.38-5.66,6.18-3.49,5.96,2.71,23.45,9.67,41.73,13.49,15,3.13,24.66,5.4,43.3,5.4,30.43,0,46.76-4.96,58.06-8.18,10.64-3.05,23.79-8.53,34.47-17.04,5.78-4.61,18.46-16.44,18.46-37.85s-11.03-33.34-14.93-37.22c-5.28-5.29-11.75-9.41-18.48-12.57-5.86-2.75-15.13-6.06-22.7-7.93-14.7-3.61-47.95-8.06-63.85-9.72-16.67-1.75-45.6-4.13-57.15-7.71-3.51-1.1-10.63-4.5-10.63-12.77,0-5.89,3.26-10.89,9.71-14.94,10.25-6.41,30.93-10.41,52.51-10.41,25.49-.09,47.09,5.74,60.83,11.87,4.67,2.1,10.13,5.1,14.48,8.64,4.89,3.98,11.78,12.29,14.25,23.86h23.04v-62.6h-25.72v7.26c0,2.36-2.43,5.41-7.01,2.88-11.52-6.03-44.08-19.06-83.98-19.12"/>
  <path class="st0" d="M870.85,221.41l125.51,113.25-1.28-76.25c-.14-10.01-1.98-14.17-12.79-14.17h-23.61v-22.81h107.32v22.81h-23.03c-11.03,0-11.72,3.53-11.86,14.17l1.94,145.71h-36.75l-144.54-129.01.02,91.56c.13,9.96.59,14.64,10.85,14.64h25.78v22.82h-105.4v-22.82h24.64c9.2,0,8.83-8.78,8.83-15.15v-106.88c0-6.89-.96-15.04-15.42-15.04h-19.98v-22.83h89.77Z"/>
  <path class="st0" d="M1188.62,381.27c1.01,0,5.49-.15,6.35-.4,2.48-.77,4.17-2.53,4.95-4.38.34-.78.5-4.2.5-4.95,0,0,.02-34.86.02-36.05,0-.87-.07-1.25-1.54-3.17-1.62-2.11-65.74-74.77-68.68-77.97-3.64-4-10.03-10.12-19.77-10.12h-22.29v-22.83h125.84v22.8h-15.17c-3.51,0-5.84,3.33-2.84,7.03,0,0,42.33,50.64,42.73,51.19.41.53.74.67,1.27.17s43.4-50.89,43.74-51.29c2.04-2.45.66-7.06-3.73-7.06h-15.58v-22.83h103.15v22.83h-23.05c-8.35,0-11.76,1.53-18.05,8.64-2.87,3.26-67.68,77.23-69.45,79.23-.92,1.05-.83,2.51-.83,3.38v36.04c0,.73.17,4.16.49,4.93.78,1.87,2.46,3.63,4.94,4.4.87.27,5.29.4,6.29.4h23.56v22.82h-125.2v-22.82l22.34.02h.01Z"/>
  <path class="st0" d="M724.07,246.05c-27.38-24.85-63.21-36.14-107.97-36.14-40.44,0-83.42,13.9-107.74,36.07-19.39,17.68-29.31,41.98-29.31,66.53s9.51,48.97,29.31,66.74c25.79,23.12,64.2,35.77,105.73,36.16h1.44c.19.01.38.01.58.01h1.29c41.92-.25,81.45-12.75,106.68-36.18,18.92-17.55,28.92-42.93,28.92-66.74s-9.42-48.78-28.92-66.46h0ZM673.9,366.12c-14.03,13.97-33.92,21.66-55.47,22.18l-3,.02c-22.02-.16-43.01-8.04-57.23-22.2-13.76-13.67-21.11-33.06-21.11-53.61s7.27-40.03,21.11-53.74c14.35-14.2,35.69-22.08,57.9-22.08s43.46,7.94,57.8,22.08c13.91,13.72,21.18,33.04,21.18,53.74s-6.74,39.25-21.18,53.61h0Z"/>
</svg>